<svg width="134" height="134" viewBox="0 0 134 134" fill="none" xmlns="http://www.w3.org/2000/svg">
<path d="M67 0C104.003 0 134 29.9969 134 67C134 104.003 104.003 134 67 134C29.9969 134 0 104.003 0 67C0 29.9969 29.9969 0 67 0ZM46 32C41.0294 32 37 36.0294 37 41V94C37 98.9706 41.0294 103 46 103H51C55.9706 103 60 98.9706 60 94V41C60 36.0294 55.9706 32 51 32H46ZM82 32C77.0294 32 73 36.0294 73 41V94C73 98.9706 77.0294 103 82 103H87C91.9706 103 96 98.9706 96 94V41C96 36.0294 91.9706 32 87 32H82Z" fill="white"/>
</svg>
